# xmcd CD database file
#
# Track frame offsets:
#	150
#	31191
#	42420
#	59398
#	71569
#	85527
#	97836
#	111329
#	132248
#	144405
#	155813
#	167334
#	180797
#	195577
#	210329
#	232821
#	245300
#
# Disc length: 3450 seconds
#
# Revision: 0
# Processed by: cddbd v1.5.2PL0 Copyright (c) Steve Scherf et al.
# Submitted via: NeoAudio 9.9.9
#
DISCID=d00d7811
DTITLE=The blues - The blues is here to stay
DYEAR=2001
DGENRE=Blues
TTITLE0=Billyboy Arnold-Dirty mother fucker
TTITLE1=John Lee Hooker-Boom Boom
TTITLE2=Albert King-Watermelon man
TTITLE3=Memphis Slim-Wish me well
TTITLE4=Little Mac-I'm tore down
TTITLE5=Sunnyland Slim-House rock
TTITLE6=Lightnin'Hopkins-Got me a Louisiana woman
TTITLE7=Fred Mc Dowell-Waves of water
TTITLE8=Jimmy Reed-Honest I do
TTITLE9=Jimmy Witherspoon-Barfly blues
TTITLE10=Muddy Waters-Gypsy woman
TTITLE11=T.Bone Walker-T.Bone shuffle
TTITLE12=Buddy Johnson and his orchestra-Shake'em up
TTITLE13=Komesick James-Homesick Sunnyland Special
TTITLE14=Albert King-The feeling
TTITLE15=Eddie Boyd-The blues is here to stay
TTITLE16=Robert Johnson-Sweet home Chicago
EXTD=
EXTT0=
EXTT1=
EXTT2=
EXTT3=
EXTT4=
EXTT5=
EXTT6=
EXTT7=
EXTT8=
EXTT9=
EXTT10=
EXTT11=
EXTT12=
EXTT13=
EXTT14=
EXTT15=
EXTT16=
PLAYORDER=
